<svg width="24" height="24" viewBox="0 0 24 24" fill="none" xmlns="http://www.w3.org/2000/svg">
<path fill-rule="evenodd" clip-rule="evenodd" d="M3.54771 3.60581C3.66165 3.47507 3.8266 3.40002 4.00003 3.40002H20C20.1735 3.40002 20.3384 3.47507 20.4524 3.60581C20.5663 3.73655 20.6181 3.9102 20.5944 4.08201L18.5944 18.582C18.5632 18.8082 18.4064 18.997 18.1898 19.0692L12.1898 21.0692C12.0666 21.1103 11.9335 21.1103 11.8103 21.0692L5.81029 19.0692C5.5937 18.997 5.43685 18.8082 5.40566 18.582L3.40566 4.08201C3.38196 3.9102 3.43376 3.73655 3.54771 3.60581ZM4.68847 4.60002L6.54346 18.0487L12 19.8676L17.4566 18.0487L19.3116 4.60002H4.68847Z" fill="#C7CFD9"/>
<path fill-rule="evenodd" clip-rule="evenodd" d="M7.90002 8.00002C7.90002 7.66865 8.16865 7.40002 8.50002 7.40002H15.5C15.7491 7.40002 15.9723 7.55395 16.0609 7.7868C16.1494 8.01964 16.0848 8.28297 15.8986 8.44847L12.5781 11.4H15C15.174 11.4 15.3393 11.4755 15.4533 11.6069C15.5673 11.7383 15.6186 11.9127 15.594 12.0849L15.094 15.5849C15.0609 15.8164 14.8964 16.0075 14.6724 16.0747L12.1724 16.8247C12.06 16.8585 11.9401 16.8585 11.8276 16.8247L9.32762 16.0747C9.11515 16.011 8.95518 15.8352 8.91168 15.6177L8.81168 15.1177C8.74669 14.7928 8.95742 14.4767 9.28235 14.4117C9.60729 14.3467 9.92338 14.5574 9.98837 14.8824L10.0177 15.0289L12 15.6236L13.9603 15.0355L14.3082 12.6H11C10.7509 12.6 10.5277 12.4461 10.4392 12.2133C10.3507 11.9804 10.4152 11.7171 10.6014 11.5516L13.9219 8.60002H8.50002C8.16865 8.60002 7.90002 8.3314 7.90002 8.00002Z" fill="#C7CFD9"/>
</svg>
