<svg width="80" height="80" viewBox="0 0 80 80" fill="none" xmlns="http://www.w3.org/2000/svg">
<path d="M64.9334 56.6899C68.6548 51.1315 70.4118 44.4889 69.925 37.8177C69.4386 31.1461 66.7364 24.8289 62.2478 19.8693C57.7594 14.9098 51.742 11.5926 45.152 10.4448C38.5624 9.2971 31.7778 10.3847 25.8768 13.5347C19.976 16.6848 15.2971 21.7165 12.5837 27.8307C9.87034 33.9447 9.27814 40.7901 10.9012 47.2791C12.5243 53.7685 16.2696 59.5291 21.5418 63.6457C26.814 67.7625 33.311 69.9989 40 69.9999C41.456 70.0001 42.875 69.5421 44.056 68.6909C45.237 67.8395 46.1204 66.6379 46.58 65.2567L58.3334 29.9999M45 29.9999L51.6668 49.9999" stroke="#C7CFD9" stroke-width="2.88" stroke-linecap="round" stroke-linejoin="round"/>
<path d="M35.8802 31.37C34.3642 30.4816 32.641 30.0082 30.8836 29.998C29.1266 29.9876 27.398 30.44 25.8714 31.3102C24.345 32.1806 23.0748 33.4378 22.1888 34.955C21.3028 36.4722 20.8322 38.1962 20.8244 39.9536C20.8166 41.7106 21.2718 43.4386 22.1444 44.9638C23.017 46.4888 24.276 47.757 25.7946 48.6408C27.3134 49.5246 29.038 49.9926 30.7952 49.9978C32.5522 50.0028 34.2796 49.5448 35.8034 48.67" stroke="#C7CFD9" stroke-width="2.88" stroke-linecap="round" stroke-linejoin="round"/>
</svg>
