<svg width="24" height="24" viewBox="0 0 24 24" fill="none" xmlns="http://www.w3.org/2000/svg">
<path fill-rule="evenodd" clip-rule="evenodd" d="M3.54771 3.60581C3.66165 3.47507 3.8266 3.40002 4.00003 3.40002H20C20.1735 3.40002 20.3384 3.47507 20.4524 3.60581C20.5663 3.73655 20.6181 3.9102 20.5944 4.08201L18.5944 18.582C18.5632 18.8082 18.4064 18.997 18.1898 19.0692L12.1898 21.0692C12.0666 21.1103 11.9335 21.1103 11.8103 21.0692L5.81029 19.0692C5.5937 18.997 5.43685 18.8082 5.40566 18.582L3.40566 4.08201C3.38196 3.9102 3.43376 3.73655 3.54771 3.60581ZM4.68847 4.60002L6.54346 18.0487L12 19.8676L17.4566 18.0487L19.3116 4.60002H4.68847Z" fill="#C7CFD9"/>
<path fill-rule="evenodd" clip-rule="evenodd" d="M8.05022 7.60294C8.16412 7.47392 8.32793 7.40002 8.50003 7.40002H15.5C15.8314 7.40002 16.1 7.66865 16.1 8.00002C16.1 8.3314 15.8314 8.60002 15.5 8.60002H9.1797L9.5297 11.4H15C15.174 11.4 15.3393 11.4755 15.4533 11.6069C15.5673 11.7383 15.6186 11.9127 15.594 12.0849L15.094 15.5849C15.0609 15.8164 14.8964 16.0075 14.6724 16.0747L12.1724 16.8247C12.06 16.8585 11.9401 16.8585 11.8276 16.8247L9.32762 16.0747C9.11515 16.011 8.95518 15.8352 8.91168 15.6177L8.81168 15.1177C8.74669 14.7928 8.95742 14.4767 9.28236 14.4117C9.60729 14.3467 9.92339 14.5574 9.98838 14.8824L10.0177 15.0289L12 15.6236L13.9603 15.0355L14.3082 12.6H9.00003C8.69743 12.6 8.44219 12.3747 8.40466 12.0744L7.90466 8.07445C7.88331 7.90368 7.93633 7.73196 8.05022 7.60294Z" fill="#C7CFD9"/>
</svg>
