<svg width="24" height="24" viewBox="0 0 24 24" fill="none" xmlns="http://www.w3.org/2000/svg">
<path fill-rule="evenodd" clip-rule="evenodd" d="M3.54771 3.60581C3.66165 3.47507 3.8266 3.40002 4.00003 3.40002H20C20.1735 3.40002 20.3384 3.47507 20.4524 3.60581C20.5663 3.73655 20.6181 3.9102 20.5944 4.08201L18.5944 18.582C18.5632 18.8082 18.4064 18.997 18.1898 19.0692L12.1898 21.0692C12.0666 21.1103 11.9335 21.1103 11.8103 21.0692L5.81029 19.0692C5.5937 18.997 5.43685 18.8082 5.40566 18.582L3.40566 4.08201C3.38196 3.9102 3.43376 3.73655 3.54771 3.60581ZM4.68847 4.60002L6.54346 18.0487L12 19.8676L17.4566 18.0487L19.3116 4.60002H4.68847Z" fill="#C7CFD9"/>
<path fill-rule="evenodd" clip-rule="evenodd" d="M6.90002 8.00002C6.90002 7.66865 7.16865 7.40002 7.50002 7.40002H10.5C10.8314 7.40002 11.1 7.66865 11.1 8.00002V16C11.1 16.208 10.9924 16.4011 10.8155 16.5104C10.6386 16.6197 10.4177 16.6297 10.2317 16.5367L8.2317 15.5367C7.93531 15.3885 7.81517 15.0281 7.96337 14.7317C8.11156 14.4353 8.47197 14.3152 8.76835 14.4634L9.90002 15.0292V8.60002H7.50002C7.16865 8.60002 6.90002 8.3314 6.90002 8.00002Z" fill="#C7CFD9"/>
<path fill-rule="evenodd" clip-rule="evenodd" d="M13.2222 7.72221C13.4285 7.51592 13.7083 7.40002 14 7.40002H16.5C16.8314 7.40002 17.1 7.66865 17.1 8.00002C17.1 8.3314 16.8314 8.60002 16.5 8.60002H14.1V11.4H15.423C15.5805 11.4 15.7362 11.4339 15.8795 11.4992C16.0227 11.5646 16.1503 11.6599 16.2535 11.7788C16.3567 11.8976 16.4333 12.0373 16.4779 12.1883C16.5225 12.3393 16.5342 12.4981 16.5121 12.654L16.094 15.5848C16.0596 15.8263 15.8823 16.0229 15.6456 16.0821L13.6456 16.5821C13.3241 16.6625 12.9983 16.467 12.918 16.1455C12.8376 15.8241 13.033 15.4983 13.3545 15.4179L14.963 15.0158L15.3077 12.6H14C13.7083 12.6 13.4285 12.4841 13.2222 12.2778C13.0159 12.0716 12.9 11.7918 12.9 11.5V8.50002C12.9 8.20829 13.0159 7.9285 13.2222 7.72221Z" fill="#C7CFD9"/>
</svg>
