<svg width="24" height="24" viewBox="0 0 24 24" fill="none" xmlns="http://www.w3.org/2000/svg">
<path fill-rule="evenodd" clip-rule="evenodd" d="M12.1609 3.6064C10.0555 3.56512 8.01136 4.31616 6.43347 5.71071C4.85559 7.10527 3.85906 9.04162 3.6413 11.1362C3.42354 13.2307 4.00043 15.3306 5.2577 17.0199C6.51497 18.7093 8.36089 19.8647 10.4298 20.2574C12.2857 20.6097 14.1997 20.3251 15.8654 19.4607L9.6 10.8452V15C9.6 15.3314 9.33137 15.6 9 15.6C8.66863 15.6 8.4 15.3314 8.4 15V9.00002C8.4 8.74013 8.56731 8.50979 8.81446 8.42942C9.06161 8.34906 9.3324 8.43694 9.48525 8.64713L17.2303 19.2971C17.3283 19.432 17.3658 19.6015 17.3338 19.7652C17.3019 19.9288 17.2032 20.0717 17.0616 20.1597C15.0172 21.4295 12.5704 21.8852 10.206 21.4364C7.84154 20.9876 5.73192 19.667 4.29505 17.7364C2.85817 15.8057 2.19886 13.4058 2.44773 11.0121C2.6966 8.61831 3.83549 6.40534 5.63879 4.81156C7.44209 3.21778 9.77824 2.35946 12.1844 2.40663C14.5906 2.4538 16.8913 3.40303 18.6308 5.06626C20.3702 6.7295 21.4215 8.9854 21.5764 11.3871C21.7312 13.7888 20.9784 16.161 19.4669 18.0338C19.2588 18.2917 18.8811 18.332 18.6232 18.1239C18.3653 17.9158 18.325 17.5381 18.5331 17.2802C19.8556 15.6415 20.5144 13.5658 20.3789 11.4643C20.2434 9.36283 19.3235 7.38891 17.8015 5.93358C16.2795 4.47825 14.2663 3.64768 12.1609 3.6064Z" fill="#C7CFD9"/>
<path fill-rule="evenodd" clip-rule="evenodd" d="M15 8.40002C15.3314 8.40002 15.6 8.66865 15.6 9.00002V12C15.6 12.3314 15.3314 12.6 15 12.6C14.6687 12.6 14.4 12.3314 14.4 12V9.00002C14.4 8.66865 14.6687 8.40002 15 8.40002Z" fill="#C7CFD9"/>
</svg>
