<svg width="24" height="24" viewBox="0 0 24 24" fill="none" xmlns="http://www.w3.org/2000/svg">
<path d="M11.175 1.92325C11.6746 1.64519 12.3254 1.64393 12.8246 1.92325C15.3361 3.30302 17.8484 4.68063 20.3594 6.06124C20.8317 6.3199 21.1476 6.83095 21.1428 7.36007V15.6613C21.1464 16.2123 20.7992 16.7356 20.3009 16.9884C17.7977 18.3605 15.2958 19.7344 12.793 21.1066C12.283 21.3901 11.6192 21.3682 11.1251 21.0615C10.3747 20.6385 9.62291 20.2176 8.87237 19.795C8.71901 19.7061 8.54612 19.6354 8.43782 19.4908C8.53356 19.3653 8.70472 19.3497 8.84381 19.2949C9.15707 19.1981 9.44478 19.0426 9.73257 18.8918C9.80534 18.8433 9.89419 18.8619 9.96394 18.9052C10.6057 19.263 11.2418 19.6311 11.8856 19.9854C12.023 20.0626 12.1621 19.9602 12.2795 19.8966C14.7359 18.5467 17.1954 17.202 19.6514 15.8517C19.7424 15.8092 19.7927 15.7152 19.7853 15.6183C19.787 12.8799 19.7857 10.141 19.7862 7.40263C19.7966 7.29266 19.7311 7.19155 19.6288 7.14655C17.1343 5.78066 14.6411 4.41269 12.1469 3.04645C12.1037 3.01757 12.0525 3.00207 12.0001 3.00199C11.9477 3.00192 11.8964 3.01727 11.8531 3.04603C9.35902 4.41269 6.8662 5.78192 4.37209 7.14773C4.27018 7.19281 4.20179 7.29224 4.21392 7.40263C4.21435 10.141 4.21392 12.8799 4.21392 15.6187C4.20959 15.666 4.22028 15.7135 4.24453 15.7547C4.26878 15.7959 4.30543 15.8289 4.34956 15.8492C5.01512 16.2162 5.68155 16.5805 6.34754 16.9462C6.72274 17.1426 7.18341 17.2593 7.59679 17.1088C7.96158 16.9816 8.21728 16.6197 8.21032 16.2431C8.21377 13.5207 8.2086 10.7978 8.21291 8.07584C8.20379 7.95498 8.32171 7.85513 8.44256 7.86651C8.76235 7.86441 9.08258 7.86232 9.40237 7.86734C9.53586 7.86441 9.62772 7.99455 9.61121 8.11631C9.60992 10.856 9.61466 13.5957 9.60906 16.3353C9.60992 17.0655 9.30139 17.86 8.60676 18.2172C7.75102 18.6482 6.69332 18.5568 5.8479 18.1435C5.11603 17.7884 4.41759 17.3692 3.6987 16.9887C3.19914 16.7373 2.85372 16.212 2.85724 15.6614V7.36007C2.852 6.81999 3.18048 6.29966 3.66749 6.04477C6.17028 4.67149 8.67264 3.29716 11.175 1.92325Z" fill="#C7CFD9"/>
<path d="M13.0923 7.61846C14.1935 7.55115 15.3722 7.57858 16.3631 8.09377C17.1303 8.48858 17.5556 9.31716 17.5691 10.1266C17.5477 10.2358 17.4275 10.2961 17.3178 10.2886C16.9983 10.2881 16.6787 10.2927 16.3593 10.2865C16.2237 10.2914 16.145 10.1728 16.128 10.059C16.0362 9.67167 15.8138 9.28808 15.4299 9.10127C14.8407 8.82108 14.1576 8.83518 13.5151 8.84102C13.046 8.86468 12.5416 8.90325 12.1443 9.16521C11.8392 9.36364 11.7465 9.76422 11.8554 10.0868C11.9581 10.3185 12.2396 10.3932 12.47 10.4621C13.797 10.7917 15.2031 10.7589 16.5048 11.1927C17.0437 11.3696 17.5708 11.7133 17.7553 12.2492C17.9966 12.9675 17.8908 13.826 17.3528 14.4025C16.9165 14.877 16.281 15.1353 15.6472 15.2756C14.804 15.4541 13.929 15.4587 13.0727 15.3794C12.2676 15.2922 11.4297 15.0913 10.8081 14.5702C10.2766 14.1319 10.017 13.449 10.0428 12.7898C10.0489 12.6785 10.1656 12.6008 10.2779 12.61C10.5996 12.6075 10.9213 12.6067 11.2431 12.6104C11.3715 12.6017 11.4668 12.7071 11.4734 12.8222C11.5328 13.1912 11.6788 13.5785 12.0176 13.7973C12.6715 14.1979 13.4919 14.1705 14.2406 14.1817C14.8609 14.1556 15.5571 14.1477 16.0633 13.7583C16.3304 13.5362 16.4095 13.1647 16.3373 12.845C16.2591 12.5751 15.9619 12.4494 15.7066 12.3671C14.3967 11.9736 12.9748 12.1164 11.6775 11.6713C11.1508 11.4945 10.6415 11.1603 10.4392 10.6464C10.1569 9.91913 10.2862 9.01952 10.8806 8.46238C11.4602 7.9082 12.2969 7.69485 13.0923 7.61846Z" fill="#C7CFD9"/>
</svg>
