<svg width="24" height="24" viewBox="0 0 24 24" fill="none" xmlns="http://www.w3.org/2000/svg">
<mask id="mask0_815_309" style="mask-type:luminance" maskUnits="userSpaceOnUse" x="2" y="3" width="19" height="18">
<path d="M20.85 3H2.84998V21H20.85V3Z" fill="white"/>
</mask>
<g mask="url(#mask0_815_309)">
<mask id="mask1_815_309" style="mask-type:luminance" maskUnits="userSpaceOnUse" x="2" y="3" width="19" height="18">
<path d="M20.85 3H2.84998V21H20.85V3Z" fill="white"/>
</mask>
<g mask="url(#mask1_815_309)">
<path d="M11.49 21C9.96234 21 8.49723 20.3931 7.41705 19.3129C6.33683 18.2327 5.72998 16.7677 5.72998 15.24C5.72998 13.7124 6.33683 12.2473 7.41705 11.167C8.49723 10.0869 9.96234 9.48 11.49 9.48V21ZM11.49 3H5.72998V8.76H11.49V3ZM15.09 8.76C15.8538 8.76 16.5863 8.45656 17.1264 7.91647C17.6666 7.37636 17.97 6.64383 17.97 5.88C17.97 5.11617 17.6666 4.38364 17.1264 3.84353C16.5863 3.30343 15.8538 3 15.09 3C14.3261 3 13.5936 3.30343 13.0535 3.84353C12.5134 4.38364 12.21 5.11617 12.21 5.88C12.21 6.64383 12.5134 7.37636 13.0535 7.91647C13.5936 8.45656 14.3261 8.76 15.09 8.76Z" fill="#C7CFD9"/>
</g>
</g>
</svg>
