<svg width="24" height="24" viewBox="0 0 24 24" fill="none" xmlns="http://www.w3.org/2000/svg">
<path d="M18.75 8.7L18.075 8.475C18.075 8.325 18.15 8.175 18.15 8.025C18.675 5.54998 18.3 3.52498 17.175 2.84998C16.05 2.24998 14.25 2.84998 12.45 4.42498C12.3 4.57498 12.075 4.72498 11.925 4.87498C11.775 4.79998 11.7 4.64998 11.55 4.57498C9.75 2.92498 7.875 2.24998 6.75 2.92498C5.625 3.52498 5.325 5.47498 5.775 7.8C5.85 8.025 5.85 8.25 5.925 8.475C5.625 8.55 5.4 8.625 5.175 8.7C2.925 9.45 1.5 10.725 1.5 11.925C1.5 13.2 3 14.55 5.325 15.3C5.475 15.375 5.7 15.45 5.925 15.45C5.85 15.675 5.775 15.975 5.775 16.2C5.325 18.525 5.7 20.325 6.75 21C7.875 21.675 9.75 21 11.625 19.35C11.775 19.2 11.925 19.05 12.075 18.975C12.225 19.125 12.45 19.35 12.675 19.5C14.475 21.075 16.2 21.675 17.325 21C18.45 20.325 18.825 18.375 18.375 15.975C18.375 15.825 18.3 15.6 18.225 15.375C18.375 15.3 18.525 15.3 18.6 15.225C21 14.4 22.575 13.125 22.575 11.85C22.5 10.725 21 9.525 18.75 8.7ZM13.125 5.17498C14.7 3.82498 16.125 3.29998 16.8 3.67498C17.475 4.04998 17.775 5.69998 17.325 7.875C17.325 8.025 17.25 8.175 17.25 8.325C16.35 8.1 15.375 7.95 14.475 7.875C13.95 7.125 13.35 6.375 12.675 5.62498L13.125 5.17498ZM7.725 13.05C7.95 13.425 8.1 13.8 8.325 14.175C8.55 14.55 8.775 14.925 9 15.225C8.325 15.15 7.725 15.075 7.05 14.925C7.2 14.325 7.425 13.725 7.725 13.05ZM7.725 10.95C7.425 10.35 7.275 9.75 7.05 9.15C7.65 9 8.325 8.925 8.925 8.85C8.7 9.225 8.475 9.525 8.25 9.9C8.1 10.2 7.875 10.575 7.725 10.95ZM8.175 12C8.475 11.4 8.775 10.875 9.075 10.275C9.375 9.75 9.75 9.15 10.125 8.625C10.725 8.55 11.4 8.55 12.075 8.55C12.75 8.55 13.35 8.55 14.025 8.625C14.4 9.15 14.7 9.675 15 10.275C15.3 10.8 15.6 11.4 15.9 12C15.6 12.6 15.3 13.125 15 13.725C14.7 14.25 14.325 14.85 14.025 15.375C13.425 15.45 12.75 15.45 12.075 15.45C11.4 15.45 10.8 15.45 10.2 15.375C9.825 14.85 9.525 14.325 9.15 13.725C8.775 13.125 8.475 12.6 8.175 12ZM15.675 14.175C15.9 13.8 16.125 13.425 16.275 13.05C16.575 13.65 16.8 14.25 16.95 14.925C16.275 15.075 15.675 15.15 15 15.225C15.3 14.85 15.525 14.475 15.675 14.175ZM16.275 10.95C16.05 10.575 15.9 10.2 15.675 9.825C15.45 9.45 15.225 9.15 15.075 8.775C15.75 8.85 16.35 9 17.025 9.075C16.8 9.75 16.575 10.35 16.275 10.95ZM12 6.225C12.45 6.675 12.825 7.2 13.2 7.725C12.375 7.65 11.55 7.65 10.725 7.725C11.175 7.2 11.625 6.675 12 6.225ZM7.2 3.67498C7.875 3.29998 9.45 3.82498 11.1 5.32498L11.4 5.62498C10.725 6.3 10.125 7.05 9.6 7.875C8.625 7.95 7.725 8.1 6.825 8.325C6.75 8.1 6.75 7.875 6.675 7.65C6.225 5.62498 6.525 4.04998 7.2 3.67498ZM6.15 14.7C6 14.625 5.775 14.625 5.625 14.55C4.575 14.175 3.75 13.725 3.15 13.275C2.625 12.825 2.4 12.375 2.4 12C2.4 11.25 3.525 10.275 5.475 9.6C5.7 9.525 5.925 9.45 6.225 9.375C6.45 10.275 6.75 11.175 7.2 12C6.75 12.9 6.45 13.8 6.15 14.7ZM11.025 18.825C10.2 19.575 9.375 20.025 8.7 20.325C8.025 20.55 7.575 20.55 7.2 20.4C6.525 20.025 6.225 18.525 6.6 16.575C6.675 16.275 6.75 16.05 6.75 15.75C7.65 15.975 8.625 16.125 9.6 16.125C10.125 16.875 10.725 17.625 11.4 18.375C11.25 18.525 11.175 18.675 11.025 18.825ZM12 17.775C11.55 17.325 11.175 16.8 10.725 16.275H13.2C12.9 16.8 12.45 17.325 12 17.775ZM17.475 19.05C17.325 19.725 17.1 20.175 16.8 20.325C16.125 20.7 14.7 20.175 13.2 18.9C13.05 18.75 12.825 18.6 12.675 18.45C13.275 17.775 13.875 17.025 14.4 16.2C15.375 16.125 16.275 15.975 17.25 15.75C17.325 15.9 17.325 16.125 17.4 16.275C17.625 17.325 17.625 18.3 17.475 19.05ZM18.225 14.55C18.075 14.55 18 14.625 17.85 14.625C17.55 13.725 17.175 12.825 16.8 11.925C17.175 11.1 17.55 10.2 17.85 9.3C18.075 9.375 18.3 9.45 18.45 9.525C20.4 10.2 21.6 11.175 21.6 11.925C21.6 12.825 20.325 13.875 18.225 14.55Z" fill="#C7CFD9"/>
<path d="M12 13.8751C12.375 13.8751 12.75 13.8001 13.05 13.5751C13.35 13.3501 13.575 13.0501 13.725 12.7501C13.875 12.3751 13.875 12.0001 13.8 11.6251C13.725 11.2501 13.575 10.9501 13.275 10.6501C13.05 10.3501 12.675 10.2001 12.3 10.1251C11.925 10.0501 11.55 10.1251 11.175 10.2001C10.8 10.3501 10.5 10.5751 10.35 10.8751C10.125 11.1751 10.05 11.5501 10.05 11.9251C10.05 12.1501 10.125 12.4501 10.2 12.6751C10.275 12.9001 10.425 13.1251 10.575 13.2751C10.725 13.4251 10.95 13.5751 11.175 13.6501C11.475 13.8001 11.775 13.8751 12 13.8751Z" fill="#C7CFD9"/>
</svg>
