<svg width="24" height="24" viewBox="0 0 24 24" fill="none" xmlns="http://www.w3.org/2000/svg">
<mask id="mask0_815_315" style="mask-type:luminance" maskUnits="userSpaceOnUse" x="3" y="5" width="18" height="14">
<path d="M21 5.09998H3V18.6H21V5.09998Z" fill="white"/>
</mask>
<g mask="url(#mask0_815_315)">
<path d="M18.4872 12.8602L18.5615 12.8591C19.0306 12.8591 19.4745 12.9682 19.8682 13.1628L19.8508 13.1549C20.2011 13.3241 20.5002 13.5832 20.7176 13.9058L20.7226 13.9137C20.9119 14.1914 21.0055 14.5231 20.9893 14.8587V14.8554C20.9814 15.0104 20.9425 15.1623 20.8751 15.3022C20.8077 15.4421 20.713 15.567 20.5966 15.6698L20.5955 15.671C20.47 15.7943 20.3194 15.8892 20.154 15.9494L20.1455 15.9522C20.0518 15.971 20.0002 15.9569 19.9909 15.9101C19.9815 15.8631 20.0236 15.8116 20.1174 15.7554C20.3716 15.6012 20.5556 15.3526 20.6225 15.0596L20.6242 15.0522C20.6388 14.8569 20.5999 14.6613 20.5117 14.4864L20.5145 14.4926C20.3965 14.2438 20.2139 14.0313 19.9858 13.8772L19.9801 13.8738C19.6276 13.6489 19.2253 13.5139 18.8085 13.4806L18.7995 13.4801C18.2025 13.3951 17.5937 13.4658 17.0321 13.6853L17.0557 13.6769C17.1373 13.8676 17.1885 14.0887 17.1957 14.3204V14.3232C17.1917 14.549 17.1305 14.7701 17.0179 14.9658C16.9052 15.1616 16.7448 15.3256 16.5517 15.4426L16.5455 15.446C16.3711 15.5697 16.172 15.6783 15.96 15.7627L15.9403 15.7694C15.7864 15.8435 15.6163 15.8772 15.4459 15.8673H15.4486C15.0928 15.7927 15.0084 15.4833 15.1955 14.9392C15.2771 14.7024 15.3913 14.4971 15.5359 14.3165L15.5325 14.3204C15.7175 14.0786 15.9206 13.8665 16.145 13.6786L16.1512 13.6736L16.0961 13.5914C15.9868 13.4027 15.8953 13.2042 15.8227 12.9986L15.8149 12.9727C15.7586 12.7851 15.7117 12.6072 15.6742 12.4388L15.6461 12.242L15.3649 12.7758C15.1211 13.2258 14.8867 13.6194 14.6617 13.9565L14.5774 14.0971C14.6719 14.3266 14.7416 14.5927 14.7731 14.8706L14.7742 14.8846C14.7898 15.1015 14.7492 15.3188 14.6564 15.5154C14.5636 15.7121 14.4217 15.8815 14.2444 16.0073L14.2404 16.0102C14.0699 16.1142 13.8933 16.2082 13.7116 16.2914L13.6779 16.3055C13.4655 16.3963 13.2387 16.4487 13.008 16.4602H13.0029C12.8461 16.4711 12.6892 16.4412 12.5472 16.3736L12.5529 16.3758C12.4972 16.3284 12.4588 16.2639 12.4436 16.1924C12.4284 16.1208 12.4374 16.0463 12.4691 15.9804L12.468 15.9826C12.693 15.6671 12.9146 15.3926 13.1503 15.1304L13.143 15.1388L13.7617 14.3519L13.6498 14.0988C13.5526 13.9182 13.4706 13.7299 13.4045 13.5357L13.3966 13.5087C13.3404 13.3213 13.2936 13.1433 13.256 12.9749L13.2279 12.7781L12.9466 13.4531C12.7221 13.9777 12.5158 14.4275 12.3279 14.8025C12.0478 15.365 11.8134 15.7963 11.6248 16.0962L11.5685 16.1806C11.3439 16.5365 11.1283 16.7144 10.9216 16.7144C10.7151 16.7144 10.5749 16.5832 10.5015 16.3207C10.4442 16.1104 10.4154 15.8934 10.416 15.6755L10.4165 15.6147V15.6176L10.4727 15.2238V15.2519C10.3228 15.6078 10.1728 15.9358 10.0228 16.2357C9.93144 16.4164 9.82553 16.5892 9.70608 16.7527L9.71339 16.742C9.59751 16.8635 9.43439 16.9388 9.25385 16.9388H9.24935C9.23751 16.94 9.22401 16.94 9.21051 16.94C9.07392 16.9401 8.94216 16.8894 8.84097 16.7977L8.84151 16.7982C8.642 16.5935 8.49825 16.3409 8.42412 16.0647L8.42135 16.0529C8.31083 15.7392 8.26248 15.407 8.27901 15.0747V15.0804C8.32347 14.6326 8.41289 14.2226 8.54397 13.8316L8.53212 13.8716L7.52024 14.4622V14.4903C7.70481 14.8782 7.78224 15.3083 7.74462 15.7362L7.74524 15.7272C7.71798 16.2835 7.5405 16.8219 7.23166 17.2853L7.23897 17.2741C6.93016 17.7682 6.47524 18.1538 5.93734 18.3777L5.91878 18.3845C5.59542 18.5273 5.24568 18.6005 4.89222 18.5994C4.65709 18.5994 4.42872 18.5679 4.21272 18.5082L4.23072 18.5122C4.05617 18.4542 3.908 18.336 3.81278 18.1786L3.81109 18.1752C3.67481 17.9762 3.59635 17.7434 3.5844 17.5025V17.4991C3.54883 17.1577 3.60901 16.8132 3.75822 16.5041L3.75315 16.5153C4.06814 15.9742 4.51669 15.5229 5.0559 15.2047L5.07278 15.1957C5.47513 14.9191 5.89763 14.6729 6.33672 14.4593L6.39634 14.4329L6.53697 14.3486C6.36822 14.2173 6.05884 13.9923 5.60884 13.6736C5.04134 13.2955 4.50113 12.8781 3.99222 12.4242L4.00628 12.4366C3.52399 12.0235 3.18182 11.4708 3.02697 10.8548L3.02247 10.8335C2.95775 10.4345 3.02865 10.0253 3.22384 9.67133L3.21934 9.68094C3.52056 9.02592 3.95955 8.44362 4.50634 7.97373L4.51309 7.96811C5.0983 7.41573 5.75293 6.94187 6.46047 6.55848L6.5094 6.5343C7.19631 6.14258 7.91717 5.81369 8.66324 5.55161L8.75885 5.52236C9.53418 5.24442 10.3517 5.10228 11.1754 5.10217H11.1765C11.8953 5.07949 12.6088 5.23281 13.2549 5.54879L13.229 5.53698C13.7352 5.76761 14.1144 6.20186 14.2662 6.73286L14.2696 6.74636C14.4016 7.28146 14.3549 7.84502 14.1369 8.35117L14.1431 8.33486C13.9144 8.89661 13.5699 9.40392 13.1322 9.82382L13.1306 9.82548C12.6936 10.2588 12.1736 10.5993 11.6017 10.8267L11.5707 10.8374C10.9234 11.1107 10.2313 11.263 9.52889 11.2869L9.5182 11.2874C9.07558 11.335 8.62792 11.2949 8.20085 11.1693L8.22501 11.1755C7.96505 11.094 7.72482 10.9593 7.51962 10.7801L7.52189 10.7817C7.38293 10.669 7.26914 10.5283 7.18778 10.3689L7.18439 10.3616C7.12816 10.2115 7.12348 10.1225 7.17035 10.0944C7.21723 10.0662 7.25002 10.0615 7.26878 10.0803L7.40939 10.2209C7.56635 10.3666 7.75362 10.4814 7.96062 10.5545L7.97189 10.5579C8.25651 10.6569 8.58501 10.7142 8.92647 10.7142C9.03612 10.7142 9.14412 10.7086 9.25047 10.6968L9.23751 10.6979C10.1087 10.5983 10.9441 10.2952 11.6765 9.8131L11.6557 9.82606C12.244 9.47855 12.734 8.98682 13.0794 8.39729L13.0895 8.37817C13.2589 8.12955 13.3601 7.82242 13.3601 7.49167C13.3601 7.28861 13.3219 7.09398 13.2521 6.91511L13.256 6.9258C13.1518 6.75945 13.0134 6.61716 12.85 6.50835C12.6865 6.39955 12.5019 6.32671 12.3082 6.29467L12.3004 6.29354C11.6822 6.1477 11.04 6.13485 10.4165 6.25586L10.4446 6.25136C9.54617 6.40934 8.67659 6.70154 7.86501 7.11817L7.91624 7.09398C5.61072 8.25649 4.42028 9.44694 4.3449 10.6653V10.6929C4.3449 11.1839 4.53784 11.63 4.85228 11.9596L4.85172 11.9591C5.20625 12.354 5.60442 12.7074 6.03859 13.0126L6.06053 13.0272C6.43925 13.3091 6.79613 13.6192 7.12816 13.9548L7.1287 13.9559L7.18497 14.0122L8.98497 13.0284C9.1848 12.7374 9.43374 12.4835 9.72074 12.278L9.7297 12.2718C9.9547 12.0828 10.2405 11.9596 10.5537 11.9348L10.5589 11.9343C10.5701 11.9332 10.583 11.9332 10.5965 11.9332C10.8064 11.9332 10.9864 12.0597 11.064 12.2408L11.0651 12.2442C11.1475 12.4314 11.1765 12.6378 11.1489 12.8405L11.1495 12.8349L11.0949 13.1122L11.1793 13.0559C11.2292 13.018 11.2884 12.9942 11.3506 12.987C11.4128 12.9798 11.4758 12.9894 11.5331 13.0149L11.5309 13.0137C11.5937 13.0298 11.6477 13.07 11.6813 13.1255C11.7149 13.1811 11.7253 13.2476 11.7102 13.3107L11.7109 13.3091L11.6265 13.6184C11.4577 14.293 11.3454 14.7804 11.2895 15.0804C11.2534 15.2093 11.2393 15.3433 11.2479 15.4769V15.4736C11.2573 15.5861 11.2713 15.6423 11.2901 15.6423C11.3089 15.6423 11.3462 15.5861 11.402 15.4736L11.4864 15.2767C11.5051 15.2767 11.5051 15.286 11.4864 15.3048L11.7957 14.6579C12.527 13.0462 12.9206 12.1461 12.9765 11.9579L13.1452 11.4241C13.164 11.3866 13.2389 11.3493 13.3702 11.3122C13.5273 11.2708 13.6893 11.2519 13.8517 11.2559H13.85C14.1126 11.2559 14.2438 11.3215 14.2438 11.4528L14.2156 11.5934C14.1446 11.7933 14.0866 11.9975 14.0419 12.2048L14.0356 12.2403C14.0073 12.4308 14.0125 12.6247 14.0509 12.8135L14.0491 12.8028L14.0772 12.9147C14.1346 13.1493 14.2219 13.3552 14.336 13.5431L14.3304 13.5335C14.555 13.1589 14.7707 12.7747 14.9772 12.3809C15.1404 12.1092 15.2922 11.7942 15.4144 11.4646L15.4272 11.4252C15.4695 11.2132 15.5179 11.0343 15.5769 10.8599L15.5679 10.8914C15.5866 10.8352 15.6667 10.793 15.8081 10.7649C15.942 10.7379 16.0955 10.7227 16.2525 10.7227H16.2727H16.2716C16.5341 10.7227 16.6742 10.7883 16.6918 10.9196L16.6355 11.0315C16.5686 11.2205 16.5101 11.4477 16.4707 11.6812L16.4674 11.7065C16.4497 11.8986 16.46 12.0922 16.4977 12.2814L16.4955 12.2684V12.3804C16.5601 12.6256 16.6564 12.8411 16.7824 13.0362L16.7767 13.0272L16.8611 13.2241C17.3616 12.9817 17.9109 12.8567 18.467 12.8585H18.489H18.4879L18.4872 12.8602ZM6.42784 16.94C6.83397 16.5213 7.0608 15.9607 7.06008 15.3774C7.06023 15.149 7.0257 14.922 6.9577 14.7041L6.9622 14.7198L6.51222 15.0011C6.05322 15.2626 5.65609 15.5546 5.29665 15.8864L5.30115 15.8825C5.0249 16.1358 4.82616 16.4623 4.72797 16.8241L4.72459 16.8382C4.64022 17.185 4.6824 17.41 4.85115 17.5132C4.95409 17.5604 5.07503 17.588 5.20159 17.588C5.33997 17.588 5.47103 17.5553 5.58634 17.4968L5.58128 17.4991C5.90351 17.3834 6.19259 17.1907 6.42334 16.9377L6.42503 16.9361L6.42784 16.94ZM10.1949 14.3502C10.2887 14.1065 10.3918 13.8159 10.5043 13.4784C10.6543 13.0284 10.7059 12.766 10.659 12.6914C10.6121 12.6168 10.523 12.6074 10.3918 12.6633C10.2403 12.7361 10.1064 12.8411 9.99974 12.971L9.99801 12.9732C9.87687 13.1271 9.76743 13.29 9.67062 13.4603L9.66051 13.4795C9.54153 13.6759 9.4485 13.8869 9.38378 14.1072L9.37874 14.1263C9.2477 14.4884 9.19049 14.873 9.21051 15.2576V15.2508C9.22926 15.6254 9.28924 15.827 9.39051 15.8555C9.49174 15.884 9.60899 15.7481 9.74208 15.4477C9.87089 15.2153 9.98562 14.9454 10.0711 14.6624L10.079 14.6321C10.1349 14.4993 10.1731 14.4054 10.1938 14.3502H10.1949ZM13.3145 15.8409C13.5083 15.7551 13.6757 15.6191 13.7992 15.4469C13.9228 15.2747 13.998 15.0726 14.0171 14.8616L14.0176 14.8571V14.8289L13.7082 15.2227L13.1464 15.8414C13.142 15.8448 13.1385 15.849 13.1361 15.8539C13.1336 15.8588 13.1323 15.8641 13.1322 15.8696C13.1322 15.8808 13.1379 15.8909 13.1457 15.8977C13.1637 15.916 13.22 15.8973 13.3145 15.8414V15.8409ZM15.7327 15.3065C15.9428 15.2475 16.1279 15.1215 16.2599 14.9476C16.3919 14.7739 16.4635 14.5617 16.464 14.3435V14.3216V14.3227C16.4584 14.2102 16.4381 14.1044 16.4049 14.0043L16.4071 14.0127C16.1884 14.2074 16.0089 14.4402 15.879 14.7029L15.8727 14.7159C15.7036 15.053 15.6564 15.2495 15.731 15.3054L15.7327 15.3065Z" fill="#C7CFD9"/>
</g>
</svg>
