<svg width="24" height="24" viewBox="0 0 24 24" fill="none" xmlns="http://www.w3.org/2000/svg">
<mask id="mask0_815_308" style="mask-type:luminance" maskUnits="userSpaceOnUse" x="0" y="0" width="24" height="24">
<path d="M24 0H0V24H24V0Z" fill="white"/>
</mask>
<g mask="url(#mask0_815_308)">
<path d="M5.35825 19.5864L4.8007 4.72883C4.78221 4.23807 5.15842 3.82217 5.6485 3.79164L18.286 3.0018C18.7848 2.97058 19.2144 3.34973 19.2457 3.84858C19.2468 3.86735 19.2475 3.88618 19.2475 3.90501V20.095C19.2475 20.5949 18.8423 21 18.3425 21C18.3289 21 18.3153 20.9997 18.3019 20.9991L6.22205 20.4566C5.75159 20.4354 5.37595 20.057 5.35825 19.5864Z" fill="#C7CFD9"/>
<mask id="mask1_815_308" style="mask-type:luminance" maskUnits="userSpaceOnUse" x="4" y="3" width="16" height="18">
<path d="M5.35825 19.5864L4.8007 4.72883C4.78221 4.23807 5.15842 3.82217 5.6485 3.79164L18.286 3.0018C18.7848 2.97058 19.2144 3.34973 19.2457 3.84858C19.2468 3.86735 19.2475 3.88618 19.2475 3.90501V20.095C19.2475 20.5949 18.8423 21 18.3425 21C18.3289 21 18.3153 20.9997 18.3019 20.9991L6.22205 20.4566C5.75159 20.4354 5.37595 20.057 5.35825 19.5864Z" fill="white"/>
</mask>
<g mask="url(#mask1_815_308)">
<path d="M15.4684 5.21249L15.5547 3.13633L17.2902 3L17.365 5.14101C17.3659 5.16676 17.3594 5.19223 17.3464 5.21443C17.3333 5.23662 17.3141 5.2546 17.2911 5.26626C17.2682 5.27791 17.2423 5.28275 17.2167 5.28019C17.1911 5.27764 17.1667 5.2678 17.1465 5.25185L16.4773 4.72455L15.6849 5.32564C15.6645 5.34114 15.6401 5.35051 15.6145 5.35267C15.589 5.35482 15.5634 5.34966 15.5407 5.33779C15.518 5.32592 15.4992 5.30784 15.4863 5.28565C15.4735 5.26346 15.4673 5.23809 15.4684 5.21249ZM13.2489 9.78443C13.2489 10.1366 15.6205 9.96778 15.9389 9.72052C15.9389 7.3228 14.6523 6.06283 12.2965 6.06283C9.94061 6.06283 8.62065 7.34236 8.62065 9.26168C8.62065 12.6045 13.1319 12.6685 13.1319 14.4919C13.1319 15.0037 12.8812 15.3076 12.3299 15.3076C11.6115 15.3076 11.3273 14.9406 11.3608 13.6931C11.3608 13.4225 8.62064 13.3381 8.53707 13.6931C8.32434 16.7164 10.2079 17.5884 12.3633 17.5884C14.4518 17.5884 16.0892 16.4752 16.0892 14.4599C16.0892 10.8771 11.5112 10.9731 11.5112 9.19773C11.5112 8.478 12.0458 8.38204 12.3633 8.38204C12.6974 8.38204 13.299 8.44093 13.2489 9.78443Z" fill="white"/>
</g>
</g>
</svg>
