<svg width="24" height="24" viewBox="0 0 24 24" fill="none" xmlns="http://www.w3.org/2000/svg">
<path d="M15.0105 8.09998L14.9542 8.39324C14.8672 8.94899 14.8987 9.10798 15.1372 9.31426L15.3675 9.50474L15.129 10.5682C14.9865 11.2027 14.8117 11.7345 14.7007 11.9092C14.6055 12.06 14.4945 12.282 14.4705 12.4013C14.4307 12.5437 14.2957 12.687 14.0895 12.8137C13.9072 12.9172 13.5495 13.1947 13.296 13.4175C13.0935 13.5997 12.954 13.7115 12.8782 13.7595L12.6307 13.9552C12.5671 14.0496 12.5192 14.1537 12.489 14.2635C12.4717 14.3437 12.4815 14.397 12.507 14.436C12.5317 14.4735 12.5745 14.4997 12.633 14.5163C12.7022 14.5325 12.7735 14.5383 12.8445 14.5335C13.005 14.5225 13.1639 14.4943 13.3185 14.4495C13.371 14.4353 13.4122 14.4218 13.4482 14.4097C13.5037 14.3415 13.632 14.2125 13.8592 13.9882C14.4622 13.3935 14.6925 13.068 14.4547 13.1557C14.367 13.1872 14.4067 13.1078 14.5575 12.9487C14.8755 12.639 15.0577 12.171 15.4387 10.7032C15.7402 9.54448 15.7402 9.52801 15.9622 9.52801C16.0665 9.52801 16.3612 9.54601 16.3612 9.54601V8.09998H15.6847H15.0105ZM17.8897 10.4737C17.8417 10.4737 17.7622 10.5457 17.715 10.6252C17.628 10.7678 17.7307 10.8547 19.0402 11.6723C19.818 12.165 20.445 12.585 20.4292 12.6173C20.4135 12.6405 19.7782 13.0538 19.017 13.53C17.6355 14.3865 17.628 14.3948 17.7547 14.5695C17.9137 14.7757 17.7547 14.847 19.548 13.728L20.85 12.8947V12.2677L19.3972 11.3708C18.612 10.8787 17.9295 10.482 17.8897 10.4737ZM5.82597 10.5615C5.78623 10.5615 5.10372 10.9665 4.31847 11.4502L2.84998 12.3473V12.9742L4.31023 13.887C5.12023 14.3865 5.80273 14.7998 5.83423 14.7998C5.86573 14.7998 5.92947 14.7278 5.99323 14.6407C6.08848 14.49 6.00822 14.4263 4.66722 13.5772C3.38998 12.7755 3.25498 12.6645 3.38247 12.5775C3.46198 12.522 4.06498 12.1485 4.71598 11.7443C6.20023 10.8315 6.12072 10.8945 6.00147 10.704C5.95422 10.6252 5.87398 10.554 5.82673 10.5615H5.82597ZM12.339 10.5788C12.12 10.5772 11.649 10.911 10.239 12.0622C10.1782 12.207 10.173 12.3068 10.2007 12.3712C10.2187 12.4155 10.2517 12.4463 10.2975 12.4688C10.3425 12.4913 10.401 12.5048 10.4655 12.51C10.5937 12.5212 10.7452 12.501 10.8675 12.477L10.95 12.4582C10.9782 12.4204 11.0153 12.39 11.058 12.3698C11.145 12.3217 11.5102 11.9887 11.8755 11.6318C12.5182 10.9807 12.669 10.6868 12.4072 10.5915C12.3857 10.5829 12.3628 10.5786 12.3397 10.5788H12.339ZM13.986 11.031C13.7932 11.0362 13.446 11.2597 12.8512 11.7345C12.5527 11.9767 12.3637 12.1072 12.2625 12.1342L11.8695 12.4447C11.7217 12.7147 11.7 12.882 11.739 12.9742C11.7487 12.997 11.7629 13.0176 11.7807 13.0349C11.7985 13.0521 11.8194 13.0656 11.8425 13.0747C11.8998 13.0974 11.9609 13.1088 12.0225 13.1085C12.1697 13.1069 12.316 13.0855 12.4575 13.0448C12.5312 13.025 12.604 13.0019 12.6757 12.9757L12.6975 12.9667L12.7372 12.9458C12.8122 12.849 12.9847 12.6668 13.2007 12.4567C13.8832 11.7983 14.232 11.3303 14.1607 11.1555C14.1285 11.0707 14.073 11.028 13.986 11.031ZM12.168 11.841C12.1125 11.847 11.988 11.943 11.7637 12.1395C11.4397 12.426 11.0865 12.591 10.9642 12.5175C10.9358 12.5239 10.9073 12.5299 10.8787 12.5355C10.7542 12.5602 10.599 12.5805 10.4602 12.5692C10.3949 12.5653 10.3308 12.5493 10.2712 12.522C10.2151 12.4963 10.1703 12.4509 10.1452 12.3945C10.1175 12.327 10.1175 12.243 10.149 12.1358L9.66149 12.5363L8.55823 13.449V14.9287L12.1732 12.081C12.1725 12.0498 12.1766 12.0187 12.1852 11.9887C12.213 11.8883 12.2115 11.8372 12.168 11.8417V11.841ZM13.7235 12.3203C13.6687 12.3203 13.5772 12.3975 13.431 12.5527C13.2322 12.765 12.9195 12.9705 12.7537 13.0125L12.7282 13.026C12.701 13.0372 12.6735 13.0477 12.6457 13.0575C12.6007 13.0725 12.5422 13.0905 12.4747 13.1085C12.3397 13.1452 12.1717 13.179 12.0217 13.1753C11.951 13.1752 11.881 13.1614 11.8155 13.1348C11.7537 13.1093 11.7043 13.0609 11.6775 12.9998C11.634 12.8955 11.6512 12.7492 11.7465 12.5415L8.55746 15.0532V15.957H9.95849L12.93 13.623C13.0072 13.5375 13.1235 13.4205 13.2802 13.2743C13.7002 12.885 13.7955 12.7507 13.7955 12.552C13.7955 12.3975 13.7782 12.3195 13.7235 12.3195V12.3203ZM14.4307 13.7828L14.1765 14.0362C14.034 14.1712 13.7797 14.3377 13.6057 14.409L13.5712 14.424L13.569 14.4277L13.5615 14.4353C13.5547 14.4405 13.5517 14.4412 13.5465 14.4435C13.477 14.4698 13.4064 14.493 13.335 14.5132C13.1761 14.5595 13.0126 14.5884 12.8475 14.5995C12.7694 14.6045 12.691 14.5977 12.615 14.5793C12.549 14.5647 12.4907 14.5262 12.4515 14.4713C12.4155 14.4157 12.405 14.3415 12.4252 14.25C12.4413 14.1848 12.4653 14.1219 12.4965 14.0625L10.0987 15.957H13.2877L13.6687 15.5205C14.1922 14.91 14.4307 14.4735 14.4307 14.1V13.7828Z" fill="#C7CFD9"/>
</svg>
