<svg width="24" height="24" viewBox="0 0 24 24" fill="none" xmlns="http://www.w3.org/2000/svg">
<mask id="mask0_815_316" style="mask-type:luminance" maskUnits="userSpaceOnUse" x="2" y="3" width="19" height="18">
<path d="M20.85 3H2.84998V21H20.85V3Z" fill="white"/>
</mask>
<g mask="url(#mask0_815_316)">
<mask id="mask1_815_316" style="mask-type:luminance" maskUnits="userSpaceOnUse" x="2" y="3" width="19" height="18">
<path d="M20.85 3H2.84998V21H20.85V3Z" fill="white"/>
</mask>
<g mask="url(#mask1_815_316)">
<path d="M11.8505 6.59998C9.45044 6.59998 7.95046 7.79999 7.35047 10.2C8.25047 8.99996 9.30046 8.54996 10.5005 8.84998C11.1852 9.02098 11.6742 9.51746 12.2165 10.068C13.0992 10.9635 14.12 12 16.3505 12C18.7505 12 20.2504 10.8 20.8505 8.39998C19.9505 9.59999 18.9004 10.05 17.7005 9.74998C17.0157 9.57898 16.5267 9.08249 15.9844 8.53196C15.1024 7.63646 14.0817 6.59998 11.8505 6.59998ZM7.35047 12C4.95046 12 3.45046 13.2 2.85046 15.6C3.75047 14.4 4.80046 13.95 6.00047 14.25C6.68521 14.421 7.17421 14.9175 7.71646 15.468C8.59922 16.3635 9.61996 17.4 11.8505 17.4C14.2505 17.4 15.7504 16.2 16.3505 13.8C15.4505 15 14.4004 15.45 13.2005 15.15C12.5157 14.979 12.0267 14.4825 11.4844 13.932C10.6024 13.0365 9.58171 12 7.35047 12Z" fill="#C7CFD9"/>
</g>
</g>
</svg>
