<svg width="24" height="24" viewBox="0 0 24 24" fill="none" xmlns="http://www.w3.org/2000/svg">
<path fill-rule="evenodd" clip-rule="evenodd" d="M16.25 12.6C15.8914 12.6 15.6 12.8914 15.6 13.25V13.5C15.6 13.7387 15.6948 13.9676 15.8636 14.1364C16.0324 14.3052 16.2613 14.4 16.5 14.4C17.057 14.4 17.5911 14.6213 17.9849 15.0151C18.3788 15.4089 18.6 15.9431 18.6 16.5V16.75C18.6 17.7714 17.7714 18.6 16.75 18.6H16.207C15.5948 18.6 15.0082 18.3567 14.5758 17.9243C14.3414 17.69 14.3414 17.3101 14.5758 17.0758C14.8101 16.8414 15.19 16.8414 15.4243 17.0758C15.6319 17.2833 15.9133 17.4 16.207 17.4H16.75C17.1087 17.4 17.4 17.1087 17.4 16.75V16.5C17.4 16.2613 17.3052 16.0324 17.1364 15.8636C16.9676 15.6948 16.7387 15.6 16.5 15.6C15.9431 15.6 15.4089 15.3788 15.0151 14.9849C14.6213 14.5911 14.4 14.057 14.4 13.5V13.25C14.4 12.2287 15.2287 11.4 16.25 11.4H16.793C17.4053 11.4 17.9919 11.6433 18.4243 12.0758C18.6586 12.3101 18.6586 12.69 18.4243 12.9243C18.19 13.1586 17.8101 13.1586 17.5758 12.9243C17.3682 12.7167 17.0868 12.6 16.793 12.6H16.25Z" fill="#C7CFD9"/>
<path fill-rule="evenodd" clip-rule="evenodd" d="M8.40002 12C8.40002 11.6687 8.66865 11.4 9.00002 11.4H13C13.3314 11.4 13.6 11.6687 13.6 12C13.6 12.3314 13.3314 12.6 13 12.6H9.00002C8.66865 12.6 8.40002 12.3314 8.40002 12Z" fill="#C7CFD9"/>
<path fill-rule="evenodd" clip-rule="evenodd" d="M11 11.4C11.3314 11.4 11.6 11.6687 11.6 12V18C11.6 18.3314 11.3314 18.6 11 18.6C10.6687 18.6 10.4 18.3314 10.4 18V12C10.4 11.6687 10.6687 11.4 11 11.4Z" fill="#C7CFD9"/>
<path fill-rule="evenodd" clip-rule="evenodd" d="M3.16155 3.16155C3.64914 2.67395 4.31046 2.40002 5.00002 2.40002H19C19.6896 2.40002 20.3509 2.67395 20.8385 3.16155C21.3261 3.64914 21.6 4.31046 21.6 5.00002V19C21.6 19.6896 21.3261 20.3509 20.8385 20.8385C20.3509 21.3261 19.6896 21.6 19 21.6H5.00002C4.31046 21.6 3.64914 21.3261 3.16155 20.8385C2.67395 20.3509 2.40002 19.6896 2.40002 19V5.00002C2.40002 4.31046 2.67395 3.64914 3.16155 3.16155ZM5.00002 3.60002C4.62872 3.60002 4.27263 3.74752 4.01007 4.01007C3.74752 4.27263 3.60002 4.62872 3.60002 5.00002V19C3.60002 19.3713 3.74752 19.7274 4.01007 19.99C4.27263 20.2525 4.62872 20.4 5.00002 20.4H19C19.3713 20.4 19.7274 20.2525 19.99 19.99C20.2525 19.7274 20.4 19.3713 20.4 19V5.00002C20.4 4.62872 20.2525 4.27263 19.99 4.01007C19.7274 3.74752 19.3713 3.60002 19 3.60002H5.00002Z" fill="#C7CFD9"/>
</svg>
