<svg xmlns="http://www.w3.org/2000/svg" width="140" height="140" fill="none"><path fill="#524BF2" fill-rule="evenodd" d="M53.23 140c3.22 0 5.81-2.621 6.04-5.834 2.852-40.05 34.845-72.044 74.896-74.897 3.213-.228 5.834-2.818 5.834-6.04V5.833A5.833 5.833 0 0 0 134.167 0H86.771c-3.222 0-5.812 2.62-6.04 5.834-2.853 40.05-34.846 72.044-74.897 74.897C2.621 80.959 0 83.549 0 86.77v47.396A5.833 5.833 0 0 0 5.833 140H53.23ZM140 77.542c0-3.221-2.621-5.859-5.831-5.588-33.065 2.796-59.419 29.15-62.215 62.215-.271 3.21 2.367 5.831 5.588 5.831h56.625a5.834 5.834 0 0 0 5.833-5.833V77.542ZM62.458 0c3.221 0 5.859 2.62 5.588 5.83C65.25 38.897 38.896 65.25 5.83 68.047 2.62 68.317 0 65.679 0 62.458V5.833A5.833 5.833 0 0 1 5.833 0h56.625Z" clip-rule="evenodd"/></svg>