<svg xmlns="http://www.w3.org/2000/svg" width="140" height="140" fill="none"><path fill="#000" fill-rule="evenodd" d="m135.5 29.346-21.805 31.98-9.104-33.063L135.5 12.81v16.537Zm-31.932-1.032 9.105 33.067-20.795-13.233L78.536 23.44a81.406 81.406 0 0 0 2.322-10.105l22.71 14.979Zm-38.56 21.569A81.706 81.706 0 0 0 78.124 24.78l12.81 23.721L65.48 96.526l-.471-46.643Zm-1.002-.337c-13.69 17.66-34.527 29.5-58.172 31.185C2.621 80.959 0 83.549 0 86.77v47.396A5.833 5.833 0 0 0 5.833 140H53.23c3.222 0 5.812-2.621 6.04-5.834 2.853-40.05 34.846-72.044 74.897-74.897 3.213-.228 5.834-2.818 5.834-6.04V5.833A5.833 5.833 0 0 0 134.167 0H86.771c-3.222 0-5.812 2.62-6.04 5.834-1.152 16.163-7.049 31.014-16.307 43.167l-.424.004.005.54Zm.016 1.596.468 46.317-29.526-23.335a82.242 82.242 0 0 0 29.058-22.982Zm5.324 47.338-3.512-.39 5.954-3.503a81.904 81.904 0 0 0-2.442 3.893Zm-4.2.54 3.652.405a81.422 81.422 0 0 0-8.507 21.514l-18.148-4.188 23.002-17.732ZM34.47 129.81l5.856-12.55-23.098-9.624-12.159 22.858L9.794 139h20.388l4.252-9.112-.007-.117.043.04Zm.087 2.177L31.285 139h3.685l-.413-7.012ZM35.971 139h6.771l-7.169-6.771.398 6.771Zm8.228 0-8.856-8.364-.107-.101 6.046-12.957 18.784 4.335a81.852 81.852 0 0 0-1.794 12.182c-.195 2.737-2.391 4.905-5.043 4.905H44.2Zm-39.61-9.731L16.167 107.5H1.574l3.014 21.769ZM5.935 139l-.902-6.509L8.65 139H5.936Zm-1.022-.087A4.835 4.835 0 0 1 1 134.167v-23.521l3.914 28.267Zm35.053-22.885L28.556 92.749l-10.764 14.039 22.175 9.24ZM15.9 80.396 1 106.006V86.771c0-2.652 2.168-4.848 4.905-5.043a81.956 81.956 0 0 0 9.995-1.332ZM1.87 106.5l15.344-26.374a81.31 81.31 0 0 0 8.812-2.408l1.979 13.853.011.078.035.071.013.027-11.31 14.753H1.868Zm62.317-8.005-30.24-23.899a81.38 81.38 0 0 1-7.162 2.863l.21-.03 1.989 13.922 12.195 24.879 23.008-17.735Zm2.467-2.048 6.475-3.81c9.726-13.706 23.561-24.293 39.71-29.965l-21.15-13.46-25.035 47.235ZM128.52 58.86a81.434 81.434 0 0 0-14.185 3.302l14.699-21.558 3.953 2.372-4.467 15.885Zm5.618-16.36-4.539-2.724 6.814-9.994.087-.128V12.55l.546-.051.289-.027.12-.264L139 8.808V42.5h-4.862Zm-4.539 16.217 4.221-15.007 5.18 9.418v.101c0 2.652-2.168 4.848-4.905 5.043-1.51.108-3.009.256-4.496.445Zm5.247-15.217L139 51.053V43.5h-4.154ZM104.28 27.301l28.881-14.44-32.972 3.077L104.28 27.3Zm-5.245-11.617 3.985 11.07L81.028 12.25a82.16 82.16 0 0 0 .7-6.344C81.923 3.168 84.119 1 86.77 1h5.9l6.364 14.684Zm1.065-.742 34.692-3.238L120.83 1h-18.406L100.1 14.942ZM101.41 1l-2.125 12.747L93.762 1h7.648Zm35.255 10.53-.408.037L122.474 1h11.693A4.833 4.833 0 0 1 139 5.833v.559l-2.335 5.137Zm-2.412 61.42a67.86 67.86 0 0 0-2.157.218L139 91.722v-14.18c0-2.693-2.175-4.808-4.747-4.591Zm-11.39 1.96a66.94 66.94 0 0 1 8.213-1.615l7.238 19.45-9.43-8.572-6.021-9.263Zm-41.847 32.675a66.919 66.919 0 0 0-4.97 11.428l14.33-6.079-9.36-5.349Zm-9.062 26.584a67.994 67.994 0 0 1 2.864-14.599l-.013-.03.025-.011c8.139-25.935 31.332-45.206 59.339-47.575 3.21-.271 5.831 2.367 5.831 5.588v56.625a5.834 5.834 0 0 1-5.833 5.833H77.542c-3.221 0-5.859-2.621-5.588-5.831Zm19.488-20.601-15.794 6.7a67.008 67.008 0 0 0-2.697 13.985c-.218 2.572 1.898 4.747 4.591 4.747h14.814l.256-.315 12.659-15.58-13.829-9.537Zm-9.937-6.855 10.243 5.853.018.01.018.012 14.056 9.694 22.073-37.768-6.064-9.329C104.62 80 90.181 91.501 81.505 106.713ZM134.167 139H94.68L139 125.18v8.987a4.833 4.833 0 0 1-4.833 4.833ZM139 94.721v29.411l-44.567 13.897 11.955-14.714.024-.03.02-.033 22.188-37.967L139 94.721ZM5.747 67.05a66.991 66.991 0 0 0 14.54-2.87L8.787 40.705 1 45.286v17.172c0 2.693 2.175 4.809 4.747 4.591ZM1 44.126l7.286-4.286L1 29.124v15.002Zm0-16.78V8.271L12.149 1h1.284L8.67 38.626 1 27.346ZM14.44 1 9.669 38.708 50.717 1H14.44ZM9.992 39.768 50.698 2.375 32.794 46.419 9.991 39.77Zm16.546 22.044 5.878-14.462-22.468-6.553 11.3 23.07a66.764 66.764 0 0 0 5.343-2.034l-.053-.021ZM1 7.077 10.318 1H5.833A4.833 4.833 0 0 0 1 5.833v1.244ZM63.613 22c-6.015 17.394-18.963 31.553-35.54 39.173L61.785 4.5H63.5V22h.113ZM52.337 1 29.96 56.045l31.11-52.3.146-.245H63.5V1.112A4.875 4.875 0 0 0 62.458 1H52.337ZM64.5 19.241a67.02 67.02 0 0 0 2.55-13.494c.157-1.87-.917-3.529-2.55-4.296v17.79Zm3.546-13.41C68.317 2.62 65.679 0 62.458 0H5.833A5.833 5.833 0 0 0 0 5.833v56.625c0 3.221 2.62 5.859 5.83 5.588C38.897 65.25 65.25 38.896 68.047 5.83Z" clip-rule="evenodd"/></svg>